<svg width="190" height="39" viewBox="0 0 190 39" fill="none"
    xmlns="http://www.w3.org/2000/svg">
    <path d="M0.0795455 7.27273V0.90909H25.3636V7.27273H16.6136V30H8.82955V7.27273H0.0795455ZM35.7969 30.3977C33.4295 30.3977 31.4029 29.929 29.7173 28.9915C28.0317 28.0445 26.7391 26.7282 25.8395 25.0426C24.9399 23.3475 24.4901 21.3826 24.4901 19.1477C24.4901 16.9129 24.9399 14.9527 25.8395 13.267C26.7391 11.572 28.0317 10.2557 29.7173 9.31818C31.4029 8.37121 33.4295 7.89773 35.7969 7.89773C38.1643 7.89773 40.1908 8.37121 41.8764 9.31818C43.562 10.2557 44.8546 11.572 45.7543 13.267C46.6539 14.9527 47.1037 16.9129 47.1037 19.1477C47.1037 21.3826 46.6539 23.3475 45.7543 25.0426C44.8546 26.7282 43.562 28.0445 41.8764 28.9915C40.1908 29.929 38.1643 30.3977 35.7969 30.3977ZM35.8537 24.6023C36.5166 24.6023 37.0895 24.3797 37.5724 23.9347C38.0554 23.4896 38.4295 22.8551 38.6946 22.0312C38.9598 21.2074 39.0923 20.2273 39.0923 19.0909C39.0923 17.9451 38.9598 16.965 38.6946 16.1506C38.4295 15.3267 38.0554 14.6922 37.5724 14.2472C37.0895 13.8021 36.5166 13.5795 35.8537 13.5795C35.1529 13.5795 34.5516 13.8021 34.0497 14.2472C33.5478 14.6922 33.1643 15.3267 32.8991 16.1506C32.634 16.965 32.5014 17.9451 32.5014 19.0909C32.5014 20.2273 32.634 21.2074 32.8991 22.0312C33.1643 22.8551 33.5478 23.4896 34.0497 23.9347C34.5516 24.3797 35.1529 24.6023 35.8537 24.6023ZM58.1832 30.2841C56.6302 30.2841 55.2003 29.8769 53.8935 29.0625C52.5961 28.2481 51.5545 27.0123 50.7685 25.3551C49.992 23.6979 49.6037 21.6098 49.6037 19.0909C49.6037 16.4583 50.0109 14.3182 50.8253 12.6705C51.6491 11.0227 52.7098 9.81534 54.0071 9.0483C55.3139 8.28125 56.687 7.89773 58.1264 7.89773C59.206 7.89773 60.1529 8.08712 60.9673 8.46591C61.7817 8.83523 62.4635 9.33239 63.0128 9.95739C63.562 10.5729 63.9787 11.25 64.2628 11.9886H64.3764V0.90909H72.2173V30H64.4332V26.4205H64.2628C63.9598 27.1591 63.5241 27.822 62.956 28.4091C62.3973 28.9867 61.7154 29.446 60.9105 29.7869C60.1151 30.1184 59.206 30.2841 58.1832 30.2841ZM61.081 24.2614C61.8007 24.2614 62.4162 24.053 62.9276 23.6364C63.4484 23.2102 63.8461 22.6136 64.1207 21.8466C64.4048 21.0701 64.5469 20.1515 64.5469 19.0909C64.5469 18.0114 64.4048 17.0881 64.1207 16.321C63.8461 15.5445 63.4484 14.9527 62.9276 14.5455C62.4162 14.1288 61.8007 13.9205 61.081 13.9205C60.3613 13.9205 59.7457 14.1288 59.2344 14.5455C58.7325 14.9527 58.3442 15.5445 58.0696 16.321C57.8045 17.0881 57.6719 18.0114 57.6719 19.0909C57.6719 20.1705 57.8045 21.0985 58.0696 21.875C58.3442 22.642 58.7325 23.2339 59.2344 23.6506C59.7457 24.0578 60.3613 24.2614 61.081 24.2614ZM86.5781 30.3977C84.2107 30.3977 82.1842 29.929 80.4986 28.9915C78.813 28.0445 77.5204 26.7282 76.6207 25.0426C75.7211 23.3475 75.2713 21.3826 75.2713 19.1477C75.2713 16.9129 75.7211 14.9527 76.6207 13.267C77.5204 11.572 78.813 10.2557 80.4986 9.31818C82.1842 8.37121 84.2107 7.89773 86.5781 7.89773C88.9455 7.89773 90.9721 8.37121 92.6577 9.31818C94.3433 10.2557 95.6359 11.572 96.5355 13.267C97.4351 14.9527 97.8849 16.9129 97.8849 19.1477C97.8849 21.3826 97.4351 23.3475 96.5355 25.0426C95.6359 26.7282 94.3433 28.0445 92.6577 28.9915C90.9721 29.929 88.9455 30.3977 86.5781 30.3977ZM86.6349 24.6023C87.2978 24.6023 87.8707 24.3797 88.3537 23.9347C88.8366 23.4896 89.2107 22.8551 89.4759 22.0312C89.741 21.2074 89.8736 20.2273 89.8736 19.0909C89.8736 17.9451 89.741 16.965 89.4759 16.1506C89.2107 15.3267 88.8366 14.6922 88.3537 14.2472C87.8707 13.8021 87.2978 13.5795 86.6349 13.5795C85.9342 13.5795 85.3329 13.8021 84.831 14.2472C84.3291 14.6922 83.9455 15.3267 83.6804 16.1506C83.4152 16.965 83.2827 17.9451 83.2827 19.0909C83.2827 20.2273 83.4152 21.2074 83.6804 22.0312C83.9455 22.8551 84.3291 23.4896 84.831 23.9347C85.3329 24.3797 85.9342 24.6023 86.6349 24.6023Z" fill="#4EA8DE"/>
    <path d="M116.479 30H107.956L117.558 0.90909H128.354L137.956 30H129.433L123.07 8.92045H122.842L116.479 30ZM114.888 18.5227H130.911V24.4318H114.888V18.5227ZM140.871 38.1818V8.18182H148.656V11.9886H148.826C149.11 11.25 149.527 10.5729 150.076 9.95739C150.625 9.33239 151.307 8.83523 152.121 8.46591C152.936 8.08712 153.883 7.89773 154.962 7.89773C156.402 7.89773 157.77 8.28125 159.067 9.0483C160.374 9.81534 161.435 11.0227 162.249 12.6705C163.073 14.3182 163.485 16.4583 163.485 19.0909C163.485 21.6098 163.092 23.6979 162.306 25.3551C161.53 27.0123 160.488 28.2481 159.181 29.0625C157.884 29.8769 156.459 30.2841 154.906 30.2841C153.883 30.2841 152.969 30.1184 152.164 29.7869C151.369 29.446 150.687 28.9867 150.119 28.4091C149.56 27.822 149.129 27.1591 148.826 26.4205H148.712V38.1818H140.871ZM148.542 19.0909C148.542 20.1515 148.679 21.0701 148.954 21.8466C149.238 22.6136 149.636 23.2102 150.147 23.6364C150.668 24.053 151.288 24.2614 152.008 24.2614C152.728 24.2614 153.338 24.0578 153.84 23.6506C154.352 23.2339 154.74 22.642 155.005 21.875C155.28 21.0985 155.417 20.1705 155.417 19.0909C155.417 18.0114 155.28 17.0881 155.005 16.321C154.74 15.5445 154.352 14.9527 153.84 14.5455C153.338 14.1288 152.728 13.9205 152.008 13.9205C151.288 13.9205 150.668 14.1288 150.147 14.5455C149.636 14.9527 149.238 15.5445 148.954 16.321C148.679 17.0881 148.542 18.0114 148.542 19.0909ZM166.77 38.1818V8.18182H174.554V11.9886H174.724C175.009 11.25 175.425 10.5729 175.974 9.95739C176.524 9.33239 177.205 8.83523 178.02 8.46591C178.834 8.08712 179.781 7.89773 180.861 7.89773C182.3 7.89773 183.669 8.28125 184.966 9.0483C186.273 9.81534 187.333 11.0227 188.148 12.6705C188.972 14.3182 189.384 16.4583 189.384 19.0909C189.384 21.6098 188.991 23.6979 188.205 25.3551C187.428 27.0123 186.386 28.2481 185.08 29.0625C183.782 29.8769 182.357 30.2841 180.804 30.2841C179.781 30.2841 178.867 30.1184 178.062 29.7869C177.267 29.446 176.585 28.9867 176.017 28.4091C175.458 27.822 175.027 27.1591 174.724 26.4205H174.611V38.1818H166.77ZM174.44 19.0909C174.44 20.1515 174.578 21.0701 174.852 21.8466C175.136 22.6136 175.534 23.2102 176.045 23.6364C176.566 24.053 177.187 24.2614 177.906 24.2614C178.626 24.2614 179.237 24.0578 179.739 23.6506C180.25 23.2339 180.638 22.642 180.903 21.875C181.178 21.0985 181.315 20.1705 181.315 19.0909C181.315 18.0114 181.178 17.0881 180.903 16.321C180.638 15.5445 180.25 14.9527 179.739 14.5455C179.237 14.1288 178.626 13.9205 177.906 13.9205C177.187 13.9205 176.566 14.1288 176.045 14.5455C175.534 14.9527 175.136 15.5445 174.852 16.321C174.578 17.0881 174.44 18.0114 174.44 19.0909Z" fill="#5E60CE"/>
</svg>
